# Blender v2.77 (sub 0) OBJ File: 'spotlight.blend'
# www.blender.org
mtllib spotlight.mtl
o lightglow
v -0.875898 0.000000 0.875898
v 0.875898 0.000000 0.875898
v -0.875898 0.000000 -0.875898
v 0.875898 0.000000 -0.875898
vt 0.0061 0.9941
vt 0.9939 0.0391
vt 0.0061 0.0391
vt 0.9939 0.9941
vn 0.0000 -1.0000 0.0000
usemtl spotlight
s off
f 3/1/1 2/2/1 1/3/1
f 3/1/1 4/4/1 2/2/1
o lightcone.001
v -1.744621 -2.903699 -0.073587
v -0.001875 -0.034680 -0.029701
v -1.492090 -2.931036 -0.842563
v -0.840758 -3.020209 -1.315490
v -0.039414 -3.137157 -1.311725
v 0.605858 -3.237211 -0.832707
v 0.848584 -3.282152 -0.061404
v 0.596052 -3.254815 0.707572
v -0.055279 -3.165642 1.180499
v -0.856623 -3.048694 1.176734
v -1.501895 -2.948640 0.697716
vt 0.9863 0.0150
vt 0.0059 0.0164
vt 0.9863 0.0164
vt 0.9863 0.0137
vt 0.0059 0.0150
vt 0.9863 0.0150
vt 0.9863 0.0124
vt 0.0059 0.0137
vt 0.9863 0.0137
vt 0.9863 0.0111
vt 0.0059 0.0124
vt 0.9863 0.0124
vt 0.9863 0.0098
vt 0.0059 0.0111
vt 0.9863 0.0111
vt 0.9863 0.0084
vt 0.0059 0.0098
vt 0.9863 0.0098
vt 0.9863 0.0071
vt 0.0059 0.0084
vt 0.9863 0.0084
vt 0.9863 0.0058
vt 0.0059 0.0071
vt 0.9863 0.0071
vt 0.9863 0.0045
vt 0.0059 0.0058
vt 0.9863 0.0058
vt 0.9863 0.0032
vt 0.0059 0.0045
vt 0.9863 0.0045
vn -0.8547 0.5192 0.0005
vn 0.1443 0.9894 0.0122
vn -0.6772 0.4999 -0.5398
vn -0.2196 0.4373 -0.8721
vn 0.3434 0.3551 -0.8694
vn 0.7968 0.2848 -0.5329
vn 0.9673 0.2532 0.0090
vn 0.7899 0.2724 0.5493
vn 0.3323 0.3351 0.8816
vn -0.2308 0.4172 0.8790
vn -0.6841 0.4876 0.5424
usemtl spotlight
s 1
f 5/5/2 6/6/3 7/7/4
f 7/8/4 6/9/3 8/10/5
f 8/11/5 6/12/3 9/13/6
f 9/14/6 6/15/3 10/16/7
f 10/17/7 6/18/3 11/19/8
f 11/20/8 6/21/3 12/22/9
f 12/23/9 6/24/3 13/25/10
f 13/26/10 6/27/3 14/28/11
f 14/29/11 6/30/3 15/31/12
f 15/32/12 6/33/3 5/34/2
o lightcone
v -1.041422 -3.006324 -0.070283
v -0.001875 -0.034680 -0.029701
v -0.925848 -3.018835 -0.422213
v -0.627760 -3.059646 -0.638653
v -0.261016 -3.113168 -0.636930
v 0.034299 -3.158959 -0.417703
v 0.145385 -3.179527 -0.064708
v 0.029812 -3.167016 0.287222
v -0.268277 -3.126205 0.503662
v -0.635021 -3.072682 0.501940
v -0.930336 -3.026892 0.282712
vt 0.9863 0.0150
vt 0.0059 0.0164
vt 0.9863 0.0164
vt 0.9863 0.0137
vt 0.0059 0.0150
vt 0.9863 0.0150
vt 0.9863 0.0124
vt 0.0059 0.0137
vt 0.9863 0.0137
vt 0.9863 0.0111
vt 0.0059 0.0124
vt 0.9863 0.0124
vt 0.9863 0.0098
vt 0.0059 0.0111
vt 0.9863 0.0111
vt 0.9863 0.0084
vt 0.0059 0.0098
vt 0.9863 0.0098
vt 0.9863 0.0071
vt 0.0059 0.0084
vt 0.9863 0.0084
vt 0.9863 0.0058
vt 0.0059 0.0071
vt 0.9863 0.0071
vt 0.9863 0.0045
vt 0.0059 0.0058
vt 0.9863 0.0058
vt 0.9863 0.0032
vt 0.0059 0.0045
vt 0.9863 0.0045
vn -0.9439 0.3302 -0.0022
vn 0.1443 0.9894 0.0122
vn -0.7547 0.3097 -0.5783
vn -0.2667 0.2429 -0.9326
vn 0.3336 0.1553 -0.9298
vn 0.8170 0.0804 -0.5709
vn 0.9989 0.0467 0.0069
vn 0.8097 0.0672 0.5830
vn 0.3217 0.1340 0.9373
vn -0.2786 0.2216 0.9345
vn -0.7620 0.2965 0.5756
usemtl spotlight
s 1
f 16/35/13 17/36/14 18/37/15
f 18/38/15 17/39/14 19/40/16
f 19/41/16 17/42/14 20/43/17
f 20/44/17 17/45/14 21/46/18
f 21/47/18 17/48/14 22/49/19
f 22/50/19 17/51/14 23/52/20
f 23/53/20 17/54/14 24/55/21
f 24/56/21 17/57/14 25/58/22
f 25/59/22 17/60/14 26/61/23
f 26/62/23 17/63/14 16/64/13
